<?xml version="1.0" standalone="no"?>
<!DOCTYPE svg PUBLIC "-//W3C//DTD SVG 20010904//EN"
 "http://www.w3.org/TR/2001/REC-SVG-20010904/DTD/svg10.dtd">
<svg version="1.0" xmlns="http://www.w3.org/2000/svg"
 width="39.000000pt" height="29.000000pt" viewBox="0 0 39.000000 29.000000"
 preserveAspectRatio="xMidYMid meet">
<metadata>
Created by potrace 1.10, written by Peter Selinger 2001-2011
</metadata>
<g transform="translate(0.000000,29.000000) scale(0.100000,-0.100000)"
fill="#ffffff" stroke="none">
<path d="M130 273 c-43 -22 -80 -76 -80 -117 0 -66 71 -136 138 -136 69 0 132
55 139 122 10 102 -104 179 -197 131z m121 -62 c17 -18 29 -40 29 -56 0 -38
-50 -85 -90 -85 -40 0 -90 47 -90 85 0 38 50 85 90 85 22 0 41 -9 61 -29z"/>
</g>
</svg>
