<svg viewBox="0 0 144 72" fill="none" xmlns="http://www.w3.org/2000/svg"><path opacity="0.1" d="M85.2935 36.8158C85.1498 38.1829 84.541 39.4592 83.569 40.4312L69.1451 54.8551C67.7114 56.2889 65.7861 57.1152 63.7616 57.227C62.7954 57.2804 61.8317 57.3432 60.8705 57.4151L56.4785 15.628C61.5967 15.2121 66.7732 15 71.9998 15C77.2262 15 82.4024 15.2121 87.5204 15.628L85.2935 36.8158Z" fill="url(#decorationHighlight)"></path><g filter="url(#decorationMaskFilter)"><path d="M90.8226 12.9109C84.6298 12.3084 78.3509 12 71.9999 12C65.6487 12 59.3695 12.3084 53.1765 12.911L58.1944 60.6532C62.738 60.221 67.3432 60 71.9999 60C76.6564 60 81.2613 60.221 85.8047 60.6531L90.8226 12.9109Z" fill="url(#decorationMask)" fill-opacity="0.01"></path></g><path fill-rule="evenodd" clip-rule="evenodd" d="M71.9999 11C77.6488 11 83.2862 11.2655 88.9116 11.7397C90.5717 11.8796 91.7806 13.3631 91.6065 15.0199L87.0062 58.7882C86.8343 60.4245 85.3767 61.614 83.7365 61.4847C79.8317 61.1768 75.9203 61 71.9999 61C68.0793 61 64.1677 61.1769 60.2627 61.4847C58.6225 61.614 57.1649 60.4245 56.9929 58.7883L52.3927 15.02C52.2185 13.3632 53.4275 11.8797 55.0875 11.7397C60.7131 11.2655 66.3508 11 71.9999 11ZM55.2857 13.7212C54.7304 13.7693 54.3243 14.2645 54.3826 14.8188L58.983 58.5892C59.0401 59.132 59.5217 59.5285 60.0657 59.4841C64.0016 59.1635 67.9818 59 71.9999 59C76.0178 59 79.9978 59.1634 83.9334 59.4841C84.4774 59.5284 84.9591 59.132 85.0161 58.5892L89.6166 14.8188C89.6749 14.2645 89.2687 13.7692 88.7135 13.7211C83.2061 13.2437 77.6316 13 71.9999 13C66.368 13 60.7933 13.2437 55.2857 13.7212Z" fill="url(#decorationBackground)" filter="url(#decorationDropShadow)"></path><path opacity="0.6" fill-rule="evenodd" clip-rule="evenodd" d="M90.5055 25.4947L91.6065 15.0199C91.7806 13.3631 90.5717 11.8796 88.9116 11.7397C83.2862 11.2655 77.6488 11 71.9999 11C66.3508 11 60.7131 11.2655 55.0875 11.7397C53.4275 11.8797 52.2185 13.3632 52.3927 15.02L56.9929 58.7883C56.9997 58.8532 57.0086 58.9174 57.0194 58.9809L58.8335 57.1668L54.3825 14.8188C54.3243 14.2645 54.7304 13.7693 55.2857 13.7212C60.7933 13.2437 66.368 13 71.9999 13C77.6316 13 83.2061 13.2437 88.7134 13.7211C89.2687 13.7692 89.6748 14.2645 89.6166 14.8188L88.2583 27.742L90.5055 25.4947Z" fill="url(#decorationStroke)"></path><defs><filter id="decorationMaskFilter" x="53.1765" y="12" width="41.6461" height="52.6532" filterUnits="userSpaceOnUse" color-interpolation-filters="sRGB"><feFlood flood-opacity="0" result="BackgroundImageFix"></feFlood><feBlend mode="normal" in="SourceGraphic" in2="BackgroundImageFix" result="shape"></feBlend><feColorMatrix in="SourceAlpha" type="matrix" values="0 0 0 0 0 0 0 0 0 0 0 0 0 0 0 0 0 0 127 0" result="hardAlpha"></feColorMatrix><feOffset dx="4" dy="4"></feOffset><feGaussianBlur stdDeviation="4"></feGaussianBlur><feComposite in2="hardAlpha" operator="arithmetic" k2="-1" k3="1"></feComposite><feColorMatrix type="matrix" values="0 0 0 0 0 0 0 0 0 0 0 0 0 0 0 0 0 0 0.2 0"></feColorMatrix><feBlend mode="normal" in2="shape" result="effect1_innerShadow"></feBlend><feColorMatrix in="SourceAlpha" type="matrix" values="0 0 0 0 0 0 0 0 0 0 0 0 0 0 0 0 0 0 127 0" result="hardAlpha"></feColorMatrix><feOffset></feOffset><feGaussianBlur stdDeviation="4"></feGaussianBlur><feComposite in2="hardAlpha" operator="arithmetic" k2="-1" k3="1"></feComposite><feColorMatrix type="matrix" values="0 0 0 0 0 0 0 0 0 0 0 0 0 0 0 0 0 0 0.2 0"></feColorMatrix><feBlend mode="normal" in2="effect1_innerShadow" result="effect2_innerShadow"></feBlend></filter><linearGradient id="decorationHighlight" x1="74.425" y1="48.7438" x2="47.6225" y2="22.1203" gradientUnits="userSpaceOnUse"><stop stop-color="white"></stop><stop offset="1" stop-color="white" stop-opacity="0"></stop></linearGradient><linearGradient id="decorationMask" x1="53.1765" y1="12" x2="100.272" y2="48.4409" gradientUnits="userSpaceOnUse"><stop stop-color="#296652"></stop><stop offset="1" stop-color="#296666"></stop></linearGradient><linearGradient id="decorationBackground" x1="71.9996" y1="11" x2="71.9996" y2="61.7425" gradientUnits="userSpaceOnUse"><stop stop-color="#FFE6C9"></stop><stop offset="1" stop-color="#FFB26A"></stop></linearGradient><linearGradient id="decorationStroke" x1="51.8299" y1="11.4611" x2="76.0308" y2="54.0159" gradientUnits="userSpaceOnUse"><stop stop-color="white" stop-opacity="0"></stop><stop offset="0.880208" stop-color="white" stop-opacity="0.79"></stop><stop offset="1" stop-color="white"></stop></linearGradient><filter id="decorationDropShadow" x="-10%" y="-10%" width="120%" height="120%" filterUnits="userSpaceOnUse" color-interpolation-filters="sRGB"><feDropShadow dx="0" dy="0" stdDeviation="4"></feDropShadow><feDropShadow dx="0" dy="0" stdDeviation="2"></feDropShadow></filter></defs>
</svg>